<svg id="Ebene_1" data-name="Ebene 1" xmlns="http://www.w3.org/2000/svg" viewBox="0 0 253 56"><defs><style>.cls-1{fill:#fff;}</style></defs><title>fam-logo-white</title><path class="cls-1" d="M49.19,16.75,40.82.31h0l-15.6,10A2.66,2.66,0,0,0,24,12.24C23.34,15.47,22.66,18.68,22,22L37.71,11.68c2.81,5.58,5.59,11.06,8.43,16.7,1.07-3.16,2.11-6.23,3.2-9.33a2.62,2.62,0,0,0-.15-2.3"/><path class="cls-1" d="M37.06,54.51l18.43,1h0L54.6,37a2.64,2.64,0,0,0-1-2.07c-2.49-2.14-4.94-4.33-7.44-6.53.35,6.3.7,12.49,1,18.73-6.24-.35-12.37-.65-18.67-1,2.2,2.5,4.33,4.9,6.47,7.4a2.68,2.68,0,0,0,2.07,1"/><path class="cls-1" d="M10.38,25.18l-10,15.5h0l16.49,8.46a2.66,2.66,0,0,0,2.3.15c3.09-1.1,6.21-2.13,9.37-3.2L11.76,37.66,22,22c-3.27.66-6.49,1.34-9.71,1.95a2.67,2.67,0,0,0-1.92,1.28"/><polygon class="cls-1" points="69.15 11.87 83.78 11.87 83.78 15.3 72.61 15.3 72.61 18.07 81.6 18.07 81.6 21.5 72.61 21.5 72.61 27.7 69.15 27.7 69.15 11.87"/><path class="cls-1" d="M101.7,15.15v4.09a3.11,3.11,0,0,1-1,2.3,3.18,3.18,0,0,1-2.31.95h-.15l3.43,4.05V27.7H98.18l-4.37-5.21-4.53,0s.06,0,.06.14a.06.06,0,0,1-.06,0V27.7H85.87V11.89H98.42a3.15,3.15,0,0,1,2.31,1,3.1,3.1,0,0,1,1,2.3M89.28,19.06h9V15.3h-9Z"/><polygon class="cls-1" points="118.7 11.87 118.7 15.3 107.53 15.3 107.53 18.07 116.52 18.07 116.52 21.5 107.53 21.5 107.53 24.27 118.7 24.27 118.7 27.7 104.08 27.7 104.08 11.87 118.7 11.87"/><polygon class="cls-1" points="135.54 11.87 135.54 15.3 124.37 15.3 124.37 18.07 133.37 18.07 133.37 21.5 124.37 21.5 124.37 24.27 135.54 24.27 135.54 27.7 120.92 27.7 120.92 11.87 135.54 11.87"/><path class="cls-1" d="M145.59,11.87h9.3a3.16,3.16,0,0,1,2.32,1,3.1,3.1,0,0,1,1,2.29V27.7h-3.45V22.6h-9v5.1h-3.4V15.12a3.23,3.23,0,0,1,3.25-3.25m.15,7.3h9V15.3h-9Z"/><path class="cls-1" d="M176.49,15.15v4.09a3.11,3.11,0,0,1-1,2.3,3.2,3.2,0,0,1-2.31.95h-.15l3.43,4.05V27.7H173l-4.38-5.21-4.53,0c.05,0,.07,0,.07.14a.09.09,0,0,1-.07,0V27.7h-3.41V11.89h12.56a3.17,3.17,0,0,1,2.31,1,3.1,3.1,0,0,1,1,2.3m-12.43,3.91h9V15.3h-9Z"/><polygon class="cls-1" points="178.47 11.87 194.3 11.87 194.3 15.3 188.1 15.3 188.1 27.7 184.67 27.7 184.67 15.3 178.47 15.3 178.47 11.87"/><path class="cls-1" d="M212.11,15.12V16.6h-3.45V15.3h-9v2.77h9.17a3.26,3.26,0,0,1,3.25,3.26v3.12a3.13,3.13,0,0,1-1,2.3,3.17,3.17,0,0,1-2.3.95h-9.32a3.24,3.24,0,0,1-3.26-3.25V23h3.41v1.29h9V21.5h-9.12a3.24,3.24,0,0,1-3.26-3.25V15.12a3.26,3.26,0,0,1,3.26-3.25h9.32a3.14,3.14,0,0,1,2.3,1,3.11,3.11,0,0,1,1,2.29"/><path class="cls-1" d="M222.25,11.87h9.32a3.14,3.14,0,0,1,2.3,1,3.1,3.1,0,0,1,.95,2.29v9.33a3.24,3.24,0,0,1-3.25,3.25h-9.32A3.23,3.23,0,0,1,219,24.45V15.12a3.24,3.24,0,0,1,3.26-3.25m.15,12.4h9v-9h-9Z"/><polygon class="cls-1" points="237.29 11.87 251.91 11.87 251.91 15.3 240.74 15.3 240.74 18.07 249.74 18.07 249.74 21.5 240.74 21.5 240.74 27.7 237.29 27.7 237.29 11.87"/><polygon class="cls-1" points="80.21 44.08 86.7 36.3 91 36.3 91 55.54 86.83 55.54 86.83 42.64 80.21 50.54 73.56 42.66 73.56 55.54 69.42 55.54 69.42 36.3 73.69 36.3 80.21 44.08"/><path class="cls-1" d="M98.24,36.3h11.33a4,4,0,0,1,4,4V51.58a4,4,0,0,1-4,4H98.24a3.91,3.91,0,0,1-3.95-4V40.26a3.91,3.91,0,0,1,3.95-4m.19,15.07h10.89V40.47H98.43Z"/><polygon class="cls-1" points="127.97 50.28 136.04 36.3 140.82 36.3 129.68 55.54 126.23 55.54 115.09 36.3 119.9 36.3 127.97 50.28"/><polygon class="cls-1" points="160.94 36.3 160.94 40.47 147.37 40.47 147.37 43.84 158.29 43.84 158.29 48.01 147.37 48.01 147.37 51.37 160.94 51.37 160.94 55.54 143.17 55.54 143.17 36.3 160.94 36.3"/><polygon class="cls-1" points="175.07 44.08 181.56 36.3 185.86 36.3 185.86 55.54 181.69 55.54 181.69 42.64 175.07 50.54 168.42 42.66 168.42 55.54 164.28 55.54 164.28 36.3 168.55 36.3 175.07 44.08"/><polygon class="cls-1" points="207.02 36.3 207.02 40.47 193.45 40.47 193.45 43.84 204.37 43.84 204.37 48.01 193.45 48.01 193.45 51.37 207.02 51.37 207.02 55.54 189.25 55.54 189.25 36.3 207.02 36.3"/><polygon class="cls-1" points="225.37 49.13 225.37 36.3 229.56 36.3 229.56 55.54 225.29 55.54 214.47 42.66 214.47 55.54 210.33 55.54 210.33 36.3 214.6 36.3 225.37 49.13"/><polygon class="cls-1" points="232.79 36.3 252.03 36.3 252.03 40.47 244.49 40.47 244.49 55.54 240.33 55.54 240.33 40.47 232.79 40.47 232.79 36.3"/></svg>